# xmcd
#
# Track frame offsets:
#	150
#	17543
#	34747
#	48453
#	59573
#	74443
#	89498
#	103595
#	122799
#	136147
#	148918
#	187970
#	200272
#	215578
#	222696
#	247891
#	260947
#	265287
#	284098
#
# Disc length: 4121 seconds
# Revision: 0
# Processed by: cddbd v1.5.2PL0 Copyright (c) Steve Scherf et al.
# Submitted via: dBpowerAMP V12.0
#
DISCID=3a101713
DTITLE=Climax Blues Band - The Climax Chicago Blues Band
DYEAR=1969
DGENRE=Blues Rock
TTITLE0=Mean Old World
TTITLE1=Insurance
TTITLE2=Going Down This Road
TTITLE3=You've Been Drinking
TTITLE4=Don't Start Me Talkin'
TTITLE5=Wee Baby Blues
TTITLE6=Twenty Past One
TTITLE7=A Stranger in Your Town
TTITLE8=How Many More Years
TTITLE9=Looking for My Baby
TTITLE10=And Lonely
TTITLE11=The Entertainer
TTITLE12=Checking On My Baby (Bonus Track)
TTITLE13=Arthur's Boogie (Bonus Track)
TTITLE14=Stormy Monday (Bonus Track)
TTITLE15=Don't Start Me Talkin' (Take One) (Bonus Track)
TTITLE16=Anybody's Boogie (Bonus Track)
TTITLE17=You've Been Drinking (Take One) (Bonus Track)
TTITLE18=And Lonely (Take Five) (Bonus Track)
EXTD=
EXTT0=
EXTT1=
EXTT2=
EXTT3=
EXTT4=
EXTT5=
EXTT6=
EXTT7=
EXTT8=
EXTT9=
EXTT10=
EXTT11=
EXTT12=
EXTT13=
EXTT14=
EXTT15=
EXTT16=
EXTT17=
EXTT18=
PLAYORDER=
